<svg class="plot-d6a7b5" fill="currentColor" font-family="system-ui, sans-serif" font-size="10" text-anchor="middle" width="686" height="198" viewBox="0 0 686 198" style="overflow: visible; font-family: var(--tblr-body-font-family);"><style>:where(.plot-d6a7b5) {
  --plot-background: white;
  display: block;
  height: auto;
  height: intrinsic;
  max-width: 100%;
}
:where(.plot-d6a7b5 text),
:where(.plot-d6a7b5 tspan) {
  white-space: pre;
}</style><g aria-label="text" font-family="var(--tblr-body-font-family)" font-size="10" transform="translate(0,-8)"><text y="0.32em" transform="translate(86.02941176470588,28)">Apr</text><text y="0.32em" transform="translate(193.23529411764702,28)">May</text><text y="0.32em" transform="translate(300.4411764705882,28)">Jun</text><text y="0.32em" transform="translate(395.735294117647,28)">Jul</text><text y="0.32em" transform="translate(502.94117647058823,28)">Aug</text><text y="0.32em" transform="translate(610.1470588235294,28)">Sep</text><text y="0.32em" transform="translate(669.7058823529411,28)">Oct</text></g><g aria-label="text" text-anchor="end" font-family="var(--tblr-body-font-family)" font-size="10" transform="translate(0,3)"><text y="0.32em" transform="translate(36,64)">Mon</text><text y="0.32em" transform="translate(36,88)">Tue</text><text y="0.32em" transform="translate(36,112)">Wed</text><text y="0.32em" transform="translate(36,136)">Thu</text><text y="0.32em" transform="translate(36,160)">Fri</text><text y="0.32em" transform="translate(36,184)">Sat</text><text y="0.32em" transform="translate(36,40)">Sun</text></g><g aria-label="rect"><rect x="39.13235294117647" y="124.75" width="22.32352941176471" height="22.5" fill="#f8f8f8"></rect><rect x="39.13235294117647" y="148.75" width="22.32352941176471" height="22.5" fill="#f8f8f8"></rect><rect x="39.13235294117647" y="172.75" width="22.32352941176471" height="22.5" fill="#f8f8f8"></rect><rect x="62.95588235294118" y="28.75" width="22.323529411764703" height="22.5" fill="#f8f8f8"></rect><rect x="62.95588235294118" y="52.75" width="22.323529411764703" height="22.5" fill="#f8f8f8"></rect><rect x="62.95588235294118" y="76.75" width="22.323529411764703" height="22.5" fill="#f8f8f8"></rect><rect x="62.95588235294118" y="100.75" width="22.323529411764703" height="22.5" fill="#f8f8f8"></rect><rect x="62.95588235294118" y="124.75" width="22.323529411764703" height="22.5" fill="#f8f8f8"></rect><rect x="62.95588235294118" y="148.75" width="22.323529411764703" height="22.5" fill="#f8f8f8"></rect><rect x="62.95588235294118" y="172.75" width="22.323529411764703" height="22.5" fill="#f8f8f8"></rect><rect x="86.77941176470588" y="28.75" width="22.323529411764696" height="22.5" fill="#f8f8f8"></rect><rect x="86.77941176470588" y="52.75" width="22.323529411764696" height="22.5" fill="#f8f8f8"></rect><rect x="86.77941176470588" y="76.75" width="22.323529411764696" height="22.5" fill="#f8f8f8"></rect><rect x="86.77941176470588" y="100.75" width="22.323529411764696" height="22.5" fill="#f8f8f8"></rect><rect x="86.77941176470588" y="124.75" width="22.323529411764696" height="22.5" fill="#f8f8f8"></rect><rect x="86.77941176470588" y="148.75" width="22.323529411764696" height="22.5" fill="#f8f8f8"></rect><rect x="86.77941176470588" y="172.75" width="22.323529411764696" height="22.5" fill="#f8f8f8"></rect><rect x="110.60294117647058" y="28.75" width="22.323529411764696" height="22.5" fill="#f8f8f8"></rect><rect x="110.60294117647058" y="52.75" width="22.323529411764696" height="22.5" fill="#f8f8f8"></rect><rect x="110.60294117647058" y="76.75" width="22.323529411764696" height="22.5" fill="#f8f8f8"></rect><rect x="110.60294117647058" y="100.75" width="22.323529411764696" height="22.5" fill="#f8f8f8"></rect><rect x="110.60294117647058" y="124.75" width="22.323529411764696" height="22.5" fill="#f8f8f8"></rect><rect x="110.60294117647058" y="148.75" width="22.323529411764696" height="22.5" fill="#f8f8f8"></rect><rect x="110.60294117647058" y="172.75" width="22.323529411764696" height="22.5" fill="#f8f8f8"></rect><rect x="134.42647058823528" y="28.75" width="22.323529411764696" height="22.5" fill="#f8f8f8"></rect><rect x="134.42647058823528" y="52.75" width="22.323529411764696" height="22.5" fill="#f8f8f8"></rect><rect x="134.42647058823528" y="76.75" width="22.323529411764696" height="22.5" fill="#f8f8f8"></rect><rect x="134.42647058823528" y="100.75" width="22.323529411764696" height="22.5" fill="#f8f8f8"></rect><rect x="134.42647058823528" y="124.75" width="22.323529411764696" height="22.5" fill="#f8f8f8"></rect><rect x="134.42647058823528" y="148.75" width="22.323529411764696" height="22.5" fill="#f8f8f8"></rect><rect x="134.42647058823528" y="172.75" width="22.323529411764696" height="22.5" fill="#f8f8f8"></rect><rect x="158.24999999999997" y="28.75" width="22.323529411764724" height="22.5" fill="#f8f8f8"></rect><rect x="158.24999999999997" y="52.75" width="22.323529411764724" height="22.5" fill="#f8f8f8"></rect><rect x="158.24999999999997" y="76.75" width="22.323529411764724" height="22.5" fill="#f8f8f8"></rect><rect x="158.24999999999997" y="100.75" width="22.323529411764724" height="22.5" fill="#f8f8f8"></rect><rect x="158.24999999999997" y="124.75" width="22.323529411764724" height="22.5" fill="#f8f8f8"></rect><rect x="158.24999999999997" y="148.75" width="22.323529411764724" height="22.5" fill="#f8f8f8"></rect><rect x="158.24999999999997" y="172.75" width="22.323529411764724" height="22.5" fill="#f8f8f8"></rect><rect x="182.0735294117647" y="28.75" width="22.323529411764667" height="22.5" fill="rgb(223, 243, 231)"></rect><rect x="182.0735294117647" y="52.75" width="22.323529411764667" height="22.5" fill="rgb(248, 248, 248)"></rect><rect x="182.0735294117647" y="76.75" width="22.323529411764667" height="22.5" fill="rgb(247, 237, 236)"></rect><rect x="182.0735294117647" y="100.75" width="22.323529411764667" height="22.5" fill="rgb(223, 243, 231)"></rect><rect x="182.0735294117647" y="124.75" width="22.323529411764667" height="22.5" fill="rgb(246, 227, 225)"></rect><rect x="182.0735294117647" y="148.75" width="22.323529411764667" height="22.5" fill="rgb(235, 245, 240)"></rect><rect x="182.0735294117647" y="172.75" width="22.323529411764667" height="22.5" fill="rgb(235, 245, 240)"></rect><rect x="205.89705882352936" y="28.75" width="22.323529411764724" height="22.5" fill="rgb(248, 248, 248)"></rect><rect x="205.89705882352936" y="52.75" width="22.323529411764724" height="22.5" fill="#f8f8f8"></rect><rect x="205.89705882352936" y="76.75" width="22.323529411764724" height="22.5" fill="rgb(223, 243, 231)"></rect><rect x="205.89705882352936" y="100.75" width="22.323529411764724" height="22.5" fill="rgb(246, 227, 225)"></rect><rect x="205.89705882352936" y="124.75" width="22.323529411764724" height="22.5" fill="rgb(223, 243, 231)"></rect><rect x="205.89705882352936" y="148.75" width="22.323529411764724" height="22.5" fill="rgb(235, 245, 240)"></rect><rect x="205.89705882352936" y="172.75" width="22.323529411764724" height="22.5" fill="rgb(235, 245, 240)"></rect><rect x="229.7205882352941" y="28.75" width="22.323529411764724" height="22.5" fill="rgb(248, 248, 248)"></rect><rect x="229.7205882352941" y="52.75" width="22.323529411764724" height="22.5" fill="rgb(248, 248, 248)"></rect><rect x="229.7205882352941" y="76.75" width="22.323529411764724" height="22.5" fill="rgb(248, 248, 248)"></rect><rect x="229.7205882352941" y="100.75" width="22.323529411764724" height="22.5" fill="rgb(235, 245, 240)"></rect><rect x="229.7205882352941" y="124.75" width="22.323529411764724" height="22.5" fill="rgb(235, 245, 240)"></rect><rect x="229.7205882352941" y="148.75" width="22.323529411764724" height="22.5" fill="rgb(235, 245, 240)"></rect><rect x="229.7205882352941" y="172.75" width="22.323529411764724" height="22.5" fill="rgb(235, 245, 240)"></rect><rect x="253.5441176470588" y="28.75" width="22.323529411764724" height="22.5" fill="rgb(247, 237, 236)"></rect><rect x="253.5441176470588" y="52.75" width="22.323529411764724" height="22.5" fill="rgb(247, 237, 236)"></rect><rect x="253.5441176470588" y="76.75" width="22.323529411764724" height="22.5" fill="rgb(247, 237, 236)"></rect><rect x="253.5441176470588" y="100.75" width="22.323529411764724" height="22.5" fill="rgb(235, 245, 240)"></rect><rect x="253.5441176470588" y="124.75" width="22.323529411764724" height="22.5" fill="rgb(210, 240, 223)"></rect><rect x="253.5441176470588" y="148.75" width="22.323529411764724" height="22.5" fill="rgb(247, 237, 236)"></rect><rect x="253.5441176470588" y="172.75" width="22.323529411764724" height="22.5" fill="rgb(223, 243, 231)"></rect><rect x="277.36764705882354" y="28.75" width="22.32352941176464" height="22.5" fill="rgb(247, 237, 236)"></rect><rect x="277.36764705882354" y="52.75" width="22.32352941176464" height="22.5" fill="rgb(235, 245, 240)"></rect><rect x="277.36764705882354" y="76.75" width="22.32352941176464" height="22.5" fill="rgb(248, 248, 248)"></rect><rect x="277.36764705882354" y="100.75" width="22.32352941176464" height="22.5" fill="rgb(248, 248, 248)"></rect><rect x="277.36764705882354" y="124.75" width="22.32352941176464" height="22.5" fill="rgb(235, 245, 240)"></rect><rect x="277.36764705882354" y="148.75" width="22.32352941176464" height="22.5" fill="rgb(223, 243, 231)"></rect><rect x="277.36764705882354" y="172.75" width="22.32352941176464" height="22.5" fill="rgb(248, 248, 248)"></rect><rect x="301.1911764705882" y="28.75" width="22.323529411764696" height="22.5" fill="rgb(247, 237, 236)"></rect><rect x="301.1911764705882" y="52.75" width="22.323529411764696" height="22.5" fill="rgb(247, 237, 236)"></rect><rect x="301.1911764705882" y="76.75" width="22.323529411764696" height="22.5" fill="rgb(210, 240, 223)"></rect><rect x="301.1911764705882" y="100.75" width="22.323529411764696" height="22.5" fill="rgb(248, 248, 248)"></rect><rect x="301.1911764705882" y="124.75" width="22.323529411764696" height="22.5" fill="rgb(210, 240, 223)"></rect><rect x="301.1911764705882" y="148.75" width="22.323529411764696" height="22.5" fill="rgb(245, 216, 213)"></rect><rect x="301.1911764705882" y="172.75" width="22.323529411764696" height="22.5" fill="rgb(198, 237, 214)"></rect><rect x="325.01470588235287" y="28.75" width="22.323529411764753" height="22.5" fill="rgb(246, 227, 225)"></rect><rect x="325.01470588235287" y="52.75" width="22.323529411764753" height="22.5" fill="rgb(248, 248, 248)"></rect><rect x="325.01470588235287" y="76.75" width="22.323529411764753" height="22.5" fill="rgb(223, 243, 231)"></rect><rect x="325.01470588235287" y="100.75" width="22.323529411764753" height="22.5" fill="rgb(210, 240, 223)"></rect><rect x="325.01470588235287" y="124.75" width="22.323529411764753" height="22.5" fill="rgb(235, 245, 240)"></rect><rect x="325.01470588235287" y="148.75" width="22.323529411764753" height="22.5" fill="rgb(248, 248, 248)"></rect><rect x="325.01470588235287" y="172.75" width="22.323529411764753" height="22.5" fill="rgb(235, 245, 240)"></rect><rect x="348.8382352941176" y="28.75" width="22.32352941176464" height="22.5" fill="rgb(235, 245, 240)"></rect><rect x="348.8382352941176" y="52.75" width="22.32352941176464" height="22.5" fill="rgb(185, 234, 206)"></rect><rect x="348.8382352941176" y="76.75" width="22.32352941176464" height="22.5" fill="rgb(245, 216, 213)"></rect><rect x="348.8382352941176" y="100.75" width="22.32352941176464" height="22.5" fill="rgb(210, 240, 223)"></rect><rect x="348.8382352941176" y="124.75" width="22.32352941176464" height="22.5" fill="rgb(210, 240, 223)"></rect><rect x="348.8382352941176" y="148.75" width="22.32352941176464" height="22.5" fill="rgb(223, 243, 231)"></rect><rect x="348.8382352941176" y="172.75" width="22.32352941176464" height="22.5" fill="rgb(247, 237, 236)"></rect><rect x="372.66176470588226" y="28.75" width="22.323529411764753" height="22.5" fill="rgb(235, 245, 240)"></rect><rect x="372.66176470588226" y="52.75" width="22.323529411764753" height="22.5" fill="rgb(223, 243, 231)"></rect><rect x="372.66176470588226" y="76.75" width="22.323529411764753" height="22.5" fill="rgb(185, 234, 206)"></rect><rect x="372.66176470588226" y="100.75" width="22.323529411764753" height="22.5" fill="rgb(242, 184, 178)"></rect><rect x="372.66176470588226" y="124.75" width="22.323529411764753" height="22.5" fill="rgb(210, 240, 223)"></rect><rect x="372.66176470588226" y="148.75" width="22.323529411764753" height="22.5" fill="rgb(185, 234, 206)"></rect><rect x="372.66176470588226" y="172.75" width="22.323529411764753" height="22.5" fill="rgb(235, 245, 240)"></rect><rect x="396.485294117647" y="28.75" width="22.323529411764753" height="22.5" fill="rgb(246, 227, 225)"></rect><rect x="396.485294117647" y="52.75" width="22.323529411764753" height="22.5" fill="rgb(210, 240, 223)"></rect><rect x="396.485294117647" y="76.75" width="22.323529411764753" height="22.5" fill="rgb(248, 248, 248)"></rect><rect x="396.485294117647" y="100.75" width="22.323529411764753" height="22.5" fill="rgb(210, 240, 223)"></rect><rect x="396.485294117647" y="124.75" width="22.323529411764753" height="22.5" fill="rgb(210, 240, 223)"></rect><rect x="396.485294117647" y="148.75" width="22.323529411764753" height="22.5" fill="rgb(247, 237, 236)"></rect><rect x="396.485294117647" y="172.75" width="22.323529411764753" height="22.5" fill="rgb(246, 227, 225)"></rect><rect x="420.30882352941177" y="28.75" width="22.323529411764696" height="22.5" fill="rgb(235, 245, 240)"></rect><rect x="420.30882352941177" y="52.75" width="22.323529411764696" height="22.5" fill="rgb(210, 240, 223)"></rect><rect x="420.30882352941177" y="76.75" width="22.323529411764696" height="22.5" fill="rgb(245, 216, 213)"></rect><rect x="420.30882352941177" y="100.75" width="22.323529411764696" height="22.5" fill="rgb(210, 240, 223)"></rect><rect x="420.30882352941177" y="124.75" width="22.323529411764696" height="22.5" fill="rgb(235, 245, 240)"></rect><rect x="420.30882352941177" y="148.75" width="22.323529411764696" height="22.5" fill="rgb(245, 216, 213)"></rect><rect x="420.30882352941177" y="172.75" width="22.323529411764696" height="22.5" fill="rgb(210, 240, 223)"></rect><rect x="444.13235294117646" y="28.75" width="22.323529411764696" height="22.5" fill="rgb(246, 227, 225)"></rect><rect x="444.13235294117646" y="52.75" width="22.323529411764696" height="22.5" fill="rgb(160, 229, 189)"></rect><rect x="444.13235294117646" y="76.75" width="22.323529411764696" height="22.5" fill="rgb(240, 162, 154)"></rect><rect x="444.13235294117646" y="100.75" width="22.323529411764696" height="22.5" fill="rgb(172, 232, 197)"></rect><rect x="444.13235294117646" y="124.75" width="22.323529411764696" height="22.5" fill="rgb(134, 223, 172)"></rect><rect x="444.13235294117646" y="148.75" width="22.323529411764696" height="22.5" fill="rgb(243, 194, 189)"></rect><rect x="444.13235294117646" y="172.75" width="22.323529411764696" height="22.5" fill="rgb(248, 248, 248)"></rect><rect x="467.95588235294116" y="28.75" width="22.323529411764696" height="22.5" fill="rgb(198, 237, 214)"></rect><rect x="467.95588235294116" y="52.75" width="22.323529411764696" height="22.5" fill="rgb(198, 237, 214)"></rect><rect x="467.95588235294116" y="76.75" width="22.323529411764696" height="22.5" fill="rgb(210, 240, 223)"></rect><rect x="467.95588235294116" y="100.75" width="22.323529411764696" height="22.5" fill="rgb(247, 237, 236)"></rect><rect x="467.95588235294116" y="124.75" width="22.323529411764696" height="22.5" fill="rgb(248, 248, 248)"></rect><rect x="467.95588235294116" y="148.75" width="22.323529411764696" height="22.5" fill="rgb(134, 223, 172)"></rect><rect x="467.95588235294116" y="172.75" width="22.323529411764696" height="22.5" fill="rgb(248, 248, 248)"></rect><rect x="491.77941176470586" y="28.75" width="22.32352941176464" height="22.5" fill="rgb(210, 240, 223)"></rect><rect x="491.77941176470586" y="52.75" width="22.32352941176464" height="22.5" fill="rgb(248, 248, 248)"></rect><rect x="491.77941176470586" y="76.75" width="22.32352941176464" height="22.5" fill="rgb(223, 243, 231)"></rect><rect x="491.77941176470586" y="100.75" width="22.32352941176464" height="22.5" fill="rgb(185, 234, 206)"></rect><rect x="491.77941176470586" y="124.75" width="22.32352941176464" height="22.5" fill="rgb(210, 240, 223)"></rect><rect x="491.77941176470586" y="148.75" width="22.32352941176464" height="22.5" fill="rgb(223, 243, 231)"></rect><rect x="491.77941176470586" y="172.75" width="22.32352941176464" height="22.5" fill="rgb(248, 248, 248)"></rect><rect x="515.6029411764705" y="28.75" width="22.323529411764866" height="22.5" fill="rgb(147, 226, 181)"></rect><rect x="515.6029411764705" y="52.75" width="22.323529411764866" height="22.5" fill="rgb(246, 227, 225)"></rect><rect x="515.6029411764705" y="76.75" width="22.323529411764866" height="22.5" fill="rgb(198, 237, 214)"></rect><rect x="515.6029411764705" y="100.75" width="22.323529411764866" height="22.5" fill="rgb(223, 243, 231)"></rect><rect x="515.6029411764705" y="124.75" width="22.323529411764866" height="22.5" fill="rgb(147, 226, 181)"></rect><rect x="515.6029411764705" y="148.75" width="22.323529411764866" height="22.5" fill="rgb(248, 248, 248)"></rect><rect x="515.6029411764705" y="172.75" width="22.323529411764866" height="22.5" fill="rgb(97, 215, 147)"></rect><rect x="539.4264705882354" y="28.75" width="22.32352941176464" height="22.5" fill="rgb(246, 227, 225)"></rect><rect x="539.4264705882354" y="52.75" width="22.32352941176464" height="22.5" fill="rgb(235, 245, 240)"></rect><rect x="539.4264705882354" y="76.75" width="22.32352941176464" height="22.5" fill="rgb(198, 237, 214)"></rect><rect x="539.4264705882354" y="100.75" width="22.32352941176464" height="22.5" fill="rgb(198, 237, 214)"></rect><rect x="539.4264705882354" y="124.75" width="22.32352941176464" height="22.5" fill="rgb(160, 229, 189)"></rect><rect x="539.4264705882354" y="148.75" width="22.32352941176464" height="22.5" fill="rgb(172, 232, 197)"></rect><rect x="539.4264705882354" y="172.75" width="22.32352941176464" height="22.5" fill="rgb(246, 227, 225)"></rect><rect x="563.25" y="28.75" width="22.32352941176464" height="22.5" fill="rgb(147, 226, 181)"></rect><rect x="563.25" y="52.75" width="22.32352941176464" height="22.5" fill="rgb(198, 237, 214)"></rect><rect x="563.25" y="76.75" width="22.32352941176464" height="22.5" fill="rgb(97, 215, 147)"></rect><rect x="563.25" y="100.75" width="22.32352941176464" height="22.5" fill="rgb(46, 204, 113)"></rect><rect x="563.25" y="124.75" width="22.32352941176464" height="22.5" fill="#f8f8f8"></rect><rect x="563.25" y="148.75" width="22.32352941176464" height="22.5" fill="#f8f8f8"></rect><rect x="563.25" y="172.75" width="22.32352941176464" height="22.5" fill="#f8f8f8"></rect><rect x="587.0735294117646" y="28.75" width="22.323529411764753" height="22.5" fill="#f8f8f8"></rect><rect x="587.0735294117646" y="52.75" width="22.323529411764753" height="22.5" fill="#f8f8f8"></rect><rect x="587.0735294117646" y="76.75" width="22.323529411764753" height="22.5" fill="#f8f8f8"></rect><rect x="587.0735294117646" y="100.75" width="22.323529411764753" height="22.5" fill="#f8f8f8"></rect><rect x="587.0735294117646" y="124.75" width="22.323529411764753" height="22.5" fill="#f8f8f8"></rect><rect x="587.0735294117646" y="148.75" width="22.323529411764753" height="22.5" fill="#f8f8f8"></rect><rect x="587.0735294117646" y="172.75" width="22.323529411764753" height="22.5" fill="#f8f8f8"></rect><rect x="610.8970588235294" y="28.75" width="22.32352941176464" height="22.5" fill="#f8f8f8"></rect><rect x="610.8970588235294" y="52.75" width="22.32352941176464" height="22.5" fill="#f8f8f8"></rect><rect x="610.8970588235294" y="76.75" width="22.32352941176464" height="22.5" fill="#f8f8f8"></rect><rect x="610.8970588235294" y="100.75" width="22.32352941176464" height="22.5" fill="#f8f8f8"></rect><rect x="610.8970588235294" y="124.75" width="22.32352941176464" height="22.5" fill="#f8f8f8"></rect><rect x="610.8970588235294" y="148.75" width="22.32352941176464" height="22.5" fill="#f8f8f8"></rect><rect x="610.8970588235294" y="172.75" width="22.32352941176464" height="22.5" fill="#f8f8f8"></rect><rect x="634.720588235294" y="28.75" width="22.323529411764753" height="22.5" fill="#f8f8f8"></rect><rect x="634.720588235294" y="52.75" width="22.323529411764753" height="22.5" fill="#f8f8f8"></rect><rect x="634.720588235294" y="76.75" width="22.323529411764753" height="22.5" fill="#f8f8f8"></rect><rect x="634.720588235294" y="100.75" width="22.323529411764753" height="22.5" fill="#f8f8f8"></rect><rect x="634.720588235294" y="124.75" width="22.323529411764753" height="22.5" fill="#f8f8f8"></rect><rect x="634.720588235294" y="148.75" width="22.323529411764753" height="22.5" fill="#f8f8f8"></rect><rect x="634.720588235294" y="172.75" width="22.323529411764753" height="22.5" fill="#f8f8f8"></rect><rect x="658.5441176470588" y="28.75" width="22.32352941176464" height="22.5" fill="#f8f8f8"></rect><rect x="658.5441176470588" y="52.75" width="22.32352941176464" height="22.5" fill="#f8f8f8"></rect><rect x="658.5441176470588" y="76.75" width="22.32352941176464" height="22.5" fill="#f8f8f8"></rect><rect x="658.5441176470588" y="100.75" width="22.32352941176464" height="22.5" fill="#f8f8f8"></rect><rect x="658.5441176470588" y="124.75" width="22.32352941176464" height="22.5" fill="#f8f8f8"></rect><rect x="658.5441176470588" y="148.75" width="22.32352941176464" height="22.5" fill="#f8f8f8"></rect></g><g aria-label="rect" aria-hidden="true" pointer-events="none"><rect x="563.25" y="76.75" width="22.32352941176464" height="22.5" fill="var(--tblr-success)"></rect><rect x="563.25" y="100.75" width="22.32352941176464" height="22.5" fill="var(--tblr-success)"></rect></g><g aria-label="text" fill="#000" font-family="var(--tblr-body-font-family)" font-size="12"><text y="0.32em" transform="translate(193.23529411764702,40)">+2</text><text y="0.32em" transform="translate(193.23529411764702,64)">+0</text><text y="0.32em" transform="translate(193.23529411764702,88)">-1</text><text y="0.32em" transform="translate(193.23529411764702,112)">+2</text><text y="0.32em" transform="translate(193.23529411764702,136)">-2</text><text y="0.32em" transform="translate(193.23529411764702,160)">+1</text><text y="0.32em" transform="translate(193.23529411764702,184)">+1</text><text y="0.32em" transform="translate(217.05882352941174,40)">+0</text><text y="0.32em" transform="translate(217.05882352941174,88)">+2</text><text y="0.32em" transform="translate(217.05882352941174,112)">-2</text><text y="0.32em" transform="translate(217.05882352941174,136)">+2</text><text y="0.32em" transform="translate(217.05882352941174,160)">+1</text><text y="0.32em" transform="translate(217.05882352941174,184)">+1</text><text y="0.32em" transform="translate(240.88235294117644,40)">+0</text><text y="0.32em" transform="translate(240.88235294117644,64)">+0</text><text y="0.32em" transform="translate(240.88235294117644,88)">+0</text><text y="0.32em" transform="translate(240.88235294117644,112)">+1</text><text y="0.32em" transform="translate(240.88235294117644,136)">+1</text><text y="0.32em" transform="translate(240.88235294117644,160)">+1</text><text y="0.32em" transform="translate(240.88235294117644,184)">+1</text><text y="0.32em" transform="translate(264.70588235294116,40)">-1</text><text y="0.32em" transform="translate(264.70588235294116,64)">-1</text><text y="0.32em" transform="translate(264.70588235294116,88)">-1</text><text y="0.32em" transform="translate(264.70588235294116,112)">+1</text><text y="0.32em" transform="translate(264.70588235294116,136)">+3</text><text y="0.32em" transform="translate(264.70588235294116,160)">-1</text><text y="0.32em" transform="translate(264.70588235294116,184)">+2</text><text y="0.32em" transform="translate(288.52941176470586,40)">-1</text><text y="0.32em" transform="translate(288.52941176470586,64)">+1</text><text y="0.32em" transform="translate(288.52941176470586,88)">+0</text><text y="0.32em" transform="translate(288.52941176470586,112)">+0</text><text y="0.32em" transform="translate(288.52941176470586,136)">+1</text><text y="0.32em" transform="translate(288.52941176470586,160)">+2</text><text y="0.32em" transform="translate(288.52941176470586,184)">+0</text><text y="0.32em" transform="translate(312.3529411764705,40)">-1</text><text y="0.32em" transform="translate(312.3529411764705,64)">-1</text><text y="0.32em" transform="translate(312.3529411764705,88)">+3</text><text y="0.32em" transform="translate(312.3529411764705,112)">+0</text><text y="0.32em" transform="translate(312.3529411764705,136)">+3</text><text y="0.32em" transform="translate(312.3529411764705,160)">-3</text><text y="0.32em" transform="translate(312.3529411764705,184)">+4</text><text y="0.32em" transform="translate(336.17647058823525,40)">-2</text><text y="0.32em" transform="translate(336.17647058823525,64)">+0</text><text y="0.32em" transform="translate(336.17647058823525,88)">+2</text><text y="0.32em" transform="translate(336.17647058823525,112)">+3</text><text y="0.32em" transform="translate(336.17647058823525,136)">+1</text><text y="0.32em" transform="translate(336.17647058823525,160)">+0</text><text y="0.32em" transform="translate(336.17647058823525,184)">+1</text><text y="0.32em" transform="translate(359.99999999999994,40)">+1</text><text y="0.32em" transform="translate(359.99999999999994,64)">+5</text><text y="0.32em" transform="translate(359.99999999999994,88)">-3</text><text y="0.32em" transform="translate(359.99999999999994,112)">+3</text><text y="0.32em" transform="translate(359.99999999999994,136)">+3</text><text y="0.32em" transform="translate(359.99999999999994,160)">+2</text><text y="0.32em" transform="translate(359.99999999999994,184)">-1</text><text y="0.32em" transform="translate(383.8235294117647,40)">+1</text><text y="0.32em" transform="translate(383.8235294117647,64)">+2</text><text y="0.32em" transform="translate(383.8235294117647,88)">+5</text><text y="0.32em" transform="translate(383.8235294117647,112)">-6</text><text y="0.32em" transform="translate(383.8235294117647,136)">+3</text><text y="0.32em" transform="translate(383.8235294117647,160)">+5</text><text y="0.32em" transform="translate(383.8235294117647,184)">+1</text><text y="0.32em" transform="translate(407.6470588235294,40)">-2</text><text y="0.32em" transform="translate(407.6470588235294,64)">+3</text><text y="0.32em" transform="translate(407.6470588235294,88)">+0</text><text y="0.32em" transform="translate(407.6470588235294,112)">+3</text><text y="0.32em" transform="translate(407.6470588235294,136)">+3</text><text y="0.32em" transform="translate(407.6470588235294,160)">-1</text><text y="0.32em" transform="translate(407.6470588235294,184)">-2</text><text y="0.32em" transform="translate(431.47058823529403,40)">+1</text><text y="0.32em" transform="translate(431.47058823529403,64)">+3</text><text y="0.32em" transform="translate(431.47058823529403,88)">-3</text><text y="0.32em" transform="translate(431.47058823529403,112)">+3</text><text y="0.32em" transform="translate(431.47058823529403,136)">+1</text><text y="0.32em" transform="translate(431.47058823529403,160)">-3</text><text y="0.32em" transform="translate(431.47058823529403,184)">+3</text><text y="0.32em" transform="translate(455.29411764705884,40)">-2</text><text y="0.32em" transform="translate(455.29411764705884,64)">+7</text><text y="0.32em" transform="translate(455.29411764705884,88)">-8</text><text y="0.32em" transform="translate(455.29411764705884,112)">+6</text><text y="0.32em" transform="translate(455.29411764705884,136)">+9</text><text y="0.32em" transform="translate(455.29411764705884,160)">-5</text><text y="0.32em" transform="translate(455.29411764705884,184)">+0</text><text y="0.32em" transform="translate(479.11764705882354,40)">+4</text><text y="0.32em" transform="translate(479.11764705882354,64)">+4</text><text y="0.32em" transform="translate(479.11764705882354,88)">+3</text><text y="0.32em" transform="translate(479.11764705882354,112)">-1</text><text y="0.32em" transform="translate(479.11764705882354,136)">+0</text><text y="0.32em" transform="translate(479.11764705882354,160)">+9</text><text y="0.32em" transform="translate(479.11764705882354,184)">+0</text><text y="0.32em" transform="translate(502.94117647058823,40)">+3</text><text y="0.32em" transform="translate(502.94117647058823,64)">+0</text><text y="0.32em" transform="translate(502.94117647058823,88)">+2</text><text y="0.32em" transform="translate(502.94117647058823,112)">+5</text><text y="0.32em" transform="translate(502.94117647058823,136)">+3</text><text y="0.32em" transform="translate(502.94117647058823,160)">+2</text><text y="0.32em" transform="translate(502.94117647058823,184)">+0</text><text y="0.32em" transform="translate(526.7647058823529,40)">+8</text><text y="0.32em" transform="translate(526.7647058823529,64)">-2</text><text y="0.32em" transform="translate(526.7647058823529,88)">+4</text><text y="0.32em" transform="translate(526.7647058823529,112)">+2</text><text y="0.32em" transform="translate(526.7647058823529,136)">+8</text><text y="0.32em" transform="translate(526.7647058823529,160)">+0</text><text y="0.32em" transform="translate(526.7647058823529,184)">+12</text><text y="0.32em" transform="translate(550.5882352941176,40)">-2</text><text y="0.32em" transform="translate(550.5882352941176,64)">+1</text><text y="0.32em" transform="translate(550.5882352941176,88)">+4</text><text y="0.32em" transform="translate(550.5882352941176,112)">+4</text><text y="0.32em" transform="translate(550.5882352941176,136)">+7</text><text y="0.32em" transform="translate(550.5882352941176,160)">+6</text><text y="0.32em" transform="translate(550.5882352941176,184)">-2</text><text y="0.32em" transform="translate(574.4117647058823,40)">+8</text><text y="0.32em" transform="translate(574.4117647058823,64)">+4</text><text y="0.32em" transform="translate(574.4117647058823,88)">+12</text><text y="0.32em" transform="translate(574.4117647058823,112)">+16</text></g><g aria-label="rect" aria-hidden="true" fill="none" stroke="var(--tblr-danger)" stroke-width="2" pointer-events="none"><rect x="586.3235294117646" y="28" width="23.823529411764753" height="24"></rect></g><g aria-label="tip" fill="var(--plot-background)" stroke="currentColor" pointer-events="none" text-anchor="start"></g></svg>