<svg xmlns="http://www.w3.org/2000/svg" style="max-height: 500px" viewBox="161.41176470588235 8.366197183098592 324.9107505070994 209.85211267605635" text-anchor="middle" font-size="10" font-family="system-ui, sans-serif" fill="currentColor" class="plot-d6a7b5" width="324.9107505070994" height="209.85211267605635"><style>:where(.plot-d6a7b5) {
  --plot-background: white;
  display: block;
  height: auto;
  height: intrinsic;
  max-width: 100%;
}
:where(.plot-d6a7b5 text),
:where(.plot-d6a7b5 tspan) {
  white-space: pre;
}</style><g transform="translate(0,-8)" font-size="10" font-family="var(--tblr-body-font-family)" aria-label="text"><text transform="translate(86.02941176470588,28)" y="0.32em">Apr</text><text transform="translate(193.23529411764702,28)" y="0.32em">May</text><text transform="translate(300.4411764705882,28)" y="0.32em">Jun</text><text transform="translate(395.735294117647,28)" y="0.32em">Jul</text><text transform="translate(502.94117647058823,28)" y="0.32em">Aug</text><text transform="translate(610.1470588235294,28)" y="0.32em">Sep</text><text transform="translate(669.7058823529411,28)" y="0.32em">Oct</text></g><g transform="translate(0,3)" font-size="10" font-family="var(--tblr-body-font-family)" text-anchor="end" aria-label="text"><text transform="translate(36,64)" y="0.32em">Mon</text><text transform="translate(36,88)" y="0.32em">Tue</text><text transform="translate(36,112)" y="0.32em">Wed</text><text transform="translate(36,136)" y="0.32em">Thu</text><text transform="translate(36,160)" y="0.32em">Fri</text><text transform="translate(36,184)" y="0.32em">Sat</text><text transform="translate(36,40)" y="0.32em">Sun</text></g><g aria-label="rect"><rect fill="#f8f8f8" height="22.5" width="22.32352941176471" y="124.75" x="39.13235294117647"/><rect fill="#f8f8f8" height="22.5" width="22.32352941176471" y="148.75" x="39.13235294117647"/><rect fill="#f8f8f8" height="22.5" width="22.32352941176471" y="172.75" x="39.13235294117647"/><rect fill="#f8f8f8" height="22.5" width="22.323529411764703" y="28.75" x="62.95588235294118"/><rect fill="#f8f8f8" height="22.5" width="22.323529411764703" y="52.75" x="62.95588235294118"/><rect fill="#f8f8f8" height="22.5" width="22.323529411764703" y="76.75" x="62.95588235294118"/><rect fill="#f8f8f8" height="22.5" width="22.323529411764703" y="100.75" x="62.95588235294118"/><rect fill="#f8f8f8" height="22.5" width="22.323529411764703" y="124.75" x="62.95588235294118"/><rect fill="#f8f8f8" height="22.5" width="22.323529411764703" y="148.75" x="62.95588235294118"/><rect fill="#f8f8f8" height="22.5" width="22.323529411764703" y="172.75" x="62.95588235294118"/><rect fill="#f8f8f8" height="22.5" width="22.323529411764696" y="28.75" x="86.77941176470588"/><rect fill="#f8f8f8" height="22.5" width="22.323529411764696" y="52.75" x="86.77941176470588"/><rect fill="#f8f8f8" height="22.5" width="22.323529411764696" y="76.75" x="86.77941176470588"/><rect fill="#f8f8f8" height="22.5" width="22.323529411764696" y="100.75" x="86.77941176470588"/><rect fill="#f8f8f8" height="22.5" width="22.323529411764696" y="124.75" x="86.77941176470588"/><rect fill="#f8f8f8" height="22.5" width="22.323529411764696" y="148.75" x="86.77941176470588"/><rect fill="#f8f8f8" height="22.5" width="22.323529411764696" y="172.75" x="86.77941176470588"/><rect fill="#f8f8f8" height="22.5" width="22.323529411764696" y="28.75" x="110.60294117647058"/><rect fill="#f8f8f8" height="22.5" width="22.323529411764696" y="52.75" x="110.60294117647058"/><rect fill="#f8f8f8" height="22.5" width="22.323529411764696" y="76.75" x="110.60294117647058"/><rect fill="#f8f8f8" height="22.5" width="22.323529411764696" y="100.75" x="110.60294117647058"/><rect fill="#f8f8f8" height="22.5" width="22.323529411764696" y="124.75" x="110.60294117647058"/><rect fill="#f8f8f8" height="22.5" width="22.323529411764696" y="148.75" x="110.60294117647058"/><rect fill="#f8f8f8" height="22.5" width="22.323529411764696" y="172.75" x="110.60294117647058"/><rect fill="#f8f8f8" height="22.5" width="22.323529411764696" y="28.75" x="134.42647058823528"/><rect fill="#f8f8f8" height="22.5" width="22.323529411764696" y="52.75" x="134.42647058823528"/><rect fill="#f8f8f8" height="22.5" width="22.323529411764696" y="76.75" x="134.42647058823528"/><rect fill="#f8f8f8" height="22.5" width="22.323529411764696" y="100.75" x="134.42647058823528"/><rect fill="#f8f8f8" height="22.5" width="22.323529411764696" y="124.75" x="134.42647058823528"/><rect fill="#f8f8f8" height="22.5" width="22.323529411764696" y="148.75" x="134.42647058823528"/><rect fill="#f8f8f8" height="22.5" width="22.323529411764696" y="172.75" x="134.42647058823528"/><rect fill="#f8f8f8" height="22.5" width="22.323529411764724" y="28.75" x="158.24999999999997"/><rect fill="#f8f8f8" height="22.5" width="22.323529411764724" y="52.75" x="158.24999999999997"/><rect fill="#f8f8f8" height="22.5" width="22.323529411764724" y="76.75" x="158.24999999999997"/><rect fill="#f8f8f8" height="22.5" width="22.323529411764724" y="100.75" x="158.24999999999997"/><rect fill="#f8f8f8" height="22.5" width="22.323529411764724" y="124.75" x="158.24999999999997"/><rect fill="#f8f8f8" height="22.5" width="22.323529411764724" y="148.75" x="158.24999999999997"/><rect fill="#f8f8f8" height="22.5" width="22.323529411764724" y="172.75" x="158.24999999999997"/><rect fill="rgb(238, 245, 252)" height="22.5" width="22.323529411764667" y="28.75" x="182.0735294117647"/><rect fill="rgb(246, 250, 253)" height="22.5" width="22.323529411764667" y="52.75" x="182.0735294117647"/><rect fill="#f8f8f8" height="22.5" width="22.323529411764667" y="76.75" x="182.0735294117647"/><rect fill="rgb(238, 245, 252)" height="22.5" width="22.323529411764667" y="100.75" x="182.0735294117647"/><rect fill="#f8f8f8" height="22.5" width="22.323529411764667" y="124.75" x="182.0735294117647"/><rect fill="rgb(246, 250, 253)" height="22.5" width="22.323529411764667" y="148.75" x="182.0735294117647"/><rect fill="rgb(238, 245, 252)" height="22.5" width="22.323529411764667" y="172.75" x="182.0735294117647"/><rect fill="rgb(246, 250, 253)" height="22.5" width="22.323529411764724" y="28.75" x="205.89705882352936"/><rect fill="#f8f8f8" height="22.5" width="22.323529411764724" y="52.75" x="205.89705882352936"/><rect fill="rgb(229, 240, 250)" height="22.5" width="22.323529411764724" y="76.75" x="205.89705882352936"/><rect fill="#f8f8f8" height="22.5" width="22.323529411764724" y="100.75" x="205.89705882352936"/><rect fill="rgb(238, 245, 252)" height="22.5" width="22.323529411764724" y="124.75" x="205.89705882352936"/><rect fill="rgb(229, 240, 250)" height="22.5" width="22.323529411764724" y="148.75" x="205.89705882352936"/><rect fill="rgb(238, 245, 252)" height="22.5" width="22.323529411764724" y="172.75" x="205.89705882352936"/><rect fill="rgb(238, 245, 252)" height="22.5" width="22.323529411764724" y="28.75" x="229.7205882352941"/><rect fill="rgb(238, 245, 252)" height="22.5" width="22.323529411764724" y="52.75" x="229.7205882352941"/><rect fill="rgb(238, 245, 252)" height="22.5" width="22.323529411764724" y="76.75" x="229.7205882352941"/><rect fill="rgb(238, 245, 252)" height="22.5" width="22.323529411764724" y="100.75" x="229.7205882352941"/><rect fill="rgb(229, 240, 250)" height="22.5" width="22.323529411764724" y="124.75" x="229.7205882352941"/><rect fill="rgb(229, 240, 250)" height="22.5" width="22.323529411764724" y="148.75" x="229.7205882352941"/><rect fill="rgb(229, 240, 250)" height="22.5" width="22.323529411764724" y="172.75" x="229.7205882352941"/><rect fill="rgb(221, 235, 249)" height="22.5" width="22.323529411764724" y="28.75" x="253.5441176470588"/><rect fill="rgb(238, 245, 252)" height="22.5" width="22.323529411764724" y="52.75" x="253.5441176470588"/><rect fill="rgb(229, 240, 250)" height="22.5" width="22.323529411764724" y="76.75" x="253.5441176470588"/><rect fill="rgb(238, 245, 252)" height="22.5" width="22.323529411764724" y="100.75" x="253.5441176470588"/><rect fill="rgb(212, 230, 247)" height="22.5" width="22.323529411764724" y="124.75" x="253.5441176470588"/><rect fill="rgb(229, 240, 250)" height="22.5" width="22.323529411764724" y="148.75" x="253.5441176470588"/><rect fill="rgb(221, 235, 249)" height="22.5" width="22.323529411764724" y="172.75" x="253.5441176470588"/><rect fill="rgb(221, 235, 249)" height="22.5" width="22.32352941176464" y="28.75" x="277.36764705882354"/><rect fill="rgb(221, 235, 249)" height="22.5" width="22.32352941176464" y="52.75" x="277.36764705882354"/><rect fill="rgb(212, 230, 247)" height="22.5" width="22.32352941176464" y="76.75" x="277.36764705882354"/><rect fill="rgb(212, 230, 247)" height="22.5" width="22.32352941176464" y="100.75" x="277.36764705882354"/><rect fill="rgb(229, 240, 250)" height="22.5" width="22.32352941176464" y="124.75" x="277.36764705882354"/><rect fill="rgb(203, 225, 245)" height="22.5" width="22.32352941176464" y="148.75" x="277.36764705882354"/><rect fill="rgb(221, 235, 249)" height="22.5" width="22.32352941176464" y="172.75" x="277.36764705882354"/><rect fill="rgb(229, 240, 250)" height="22.5" width="22.323529411764696" y="28.75" x="301.1911764705882"/><rect fill="rgb(203, 225, 245)" height="22.5" width="22.323529411764696" y="52.75" x="301.1911764705882"/><rect fill="rgb(203, 225, 245)" height="22.5" width="22.323529411764696" y="76.75" x="301.1911764705882"/><rect fill="rgb(203, 225, 245)" height="22.5" width="22.323529411764696" y="100.75" x="301.1911764705882"/><rect fill="rgb(195, 220, 244)" height="22.5" width="22.323529411764696" y="124.75" x="301.1911764705882"/><rect fill="rgb(229, 240, 250)" height="22.5" width="22.323529411764696" y="148.75" x="301.1911764705882"/><rect fill="rgb(186, 215, 242)" height="22.5" width="22.323529411764696" y="172.75" x="301.1911764705882"/><rect fill="rgb(212, 230, 247)" height="22.5" width="22.323529411764753" y="28.75" x="325.01470588235287"/><rect fill="rgb(203, 225, 245)" height="22.5" width="22.323529411764753" y="52.75" x="325.01470588235287"/><rect fill="rgb(195, 220, 244)" height="22.5" width="22.323529411764753" y="76.75" x="325.01470588235287"/><rect fill="rgb(186, 215, 242)" height="22.5" width="22.323529411764753" y="100.75" x="325.01470588235287"/><rect fill="rgb(203, 225, 245)" height="22.5" width="22.323529411764753" y="124.75" x="325.01470588235287"/><rect fill="rgb(195, 220, 244)" height="22.5" width="22.323529411764753" y="148.75" x="325.01470588235287"/><rect fill="rgb(195, 220, 244)" height="22.5" width="22.323529411764753" y="172.75" x="325.01470588235287"/><rect fill="rgb(186, 215, 242)" height="22.5" width="22.32352941176464" y="28.75" x="348.8382352941176"/><rect fill="rgb(178, 210, 241)" height="22.5" width="22.32352941176464" y="52.75" x="348.8382352941176"/><rect fill="rgb(195, 220, 244)" height="22.5" width="22.32352941176464" y="76.75" x="348.8382352941176"/><rect fill="rgb(169, 205, 239)" height="22.5" width="22.32352941176464" y="100.75" x="348.8382352941176"/><rect fill="rgb(169, 205, 239)" height="22.5" width="22.32352941176464" y="124.75" x="348.8382352941176"/><rect fill="rgb(178, 210, 241)" height="22.5" width="22.32352941176464" y="148.75" x="348.8382352941176"/><rect fill="rgb(178, 210, 241)" height="22.5" width="22.32352941176464" y="172.75" x="348.8382352941176"/><rect fill="rgb(178, 210, 241)" height="22.5" width="22.323529411764753" y="28.75" x="372.66176470588226"/><rect fill="rgb(152, 195, 236)" height="22.5" width="22.323529411764753" y="52.75" x="372.66176470588226"/><rect fill="rgb(152, 195, 236)" height="22.5" width="22.323529411764753" y="76.75" x="372.66176470588226"/><rect fill="rgb(186, 215, 242)" height="22.5" width="22.323529411764753" y="100.75" x="372.66176470588226"/><rect fill="rgb(135, 185, 233)" height="22.5" width="22.323529411764753" y="124.75" x="372.66176470588226"/><rect fill="rgb(152, 195, 236)" height="22.5" width="22.323529411764753" y="148.75" x="372.66176470588226"/><rect fill="rgb(161, 200, 238)" height="22.5" width="22.323529411764753" y="172.75" x="372.66176470588226"/><rect fill="rgb(178, 210, 241)" height="22.5" width="22.323529411764753" y="28.75" x="396.485294117647"/><rect fill="rgb(152, 195, 236)" height="22.5" width="22.323529411764753" y="52.75" x="396.485294117647"/><rect fill="rgb(161, 200, 238)" height="22.5" width="22.323529411764753" y="76.75" x="396.485294117647"/><rect fill="rgb(143, 190, 234)" height="22.5" width="22.323529411764753" y="100.75" x="396.485294117647"/><rect fill="rgb(126, 181, 231)" height="22.5" width="22.323529411764753" y="124.75" x="396.485294117647"/><rect fill="rgb(161, 200, 238)" height="22.5" width="22.323529411764753" y="148.75" x="396.485294117647"/><rect fill="rgb(186, 215, 242)" height="22.5" width="22.323529411764753" y="172.75" x="396.485294117647"/><rect fill="rgb(143, 190, 234)" height="22.5" width="22.323529411764696" y="28.75" x="420.30882352941177"/><rect fill="rgb(152, 195, 236)" height="22.5" width="22.323529411764696" y="52.75" x="420.30882352941177"/><rect fill="rgb(126, 181, 231)" height="22.5" width="22.323529411764696" y="76.75" x="420.30882352941177"/><rect fill="rgb(152, 195, 236)" height="22.5" width="22.323529411764696" y="100.75" x="420.30882352941177"/><rect fill="rgb(118, 176, 230)" height="22.5" width="22.323529411764696" y="124.75" x="420.30882352941177"/><rect fill="rgb(161, 200, 238)" height="22.5" width="22.323529411764696" y="148.75" x="420.30882352941177"/><rect fill="rgb(143, 190, 234)" height="22.5" width="22.323529411764696" y="172.75" x="420.30882352941177"/><rect fill="rgb(126, 181, 231)" height="22.5" width="22.323529411764696" y="28.75" x="444.13235294117646"/><rect fill="rgb(109, 171, 228)" height="22.5" width="22.323529411764696" y="52.75" x="444.13235294117646"/><rect fill="rgb(169, 205, 239)" height="22.5" width="22.323529411764696" y="76.75" x="444.13235294117646"/><rect fill="rgb(109, 171, 228)" height="22.5" width="22.323529411764696" y="100.75" x="444.13235294117646"/><rect fill="rgb(75, 151, 222)" height="22.5" width="22.323529411764696" y="124.75" x="444.13235294117646"/><rect fill="rgb(152, 195, 236)" height="22.5" width="22.323529411764696" y="148.75" x="444.13235294117646"/><rect fill="rgb(152, 195, 236)" height="22.5" width="22.323529411764696" y="172.75" x="444.13235294117646"/><rect fill="rgb(100, 166, 226)" height="22.5" width="22.323529411764696" y="28.75" x="467.95588235294116"/><rect fill="rgb(100, 166, 226)" height="22.5" width="22.323529411764696" y="52.75" x="467.95588235294116"/><rect fill="rgb(109, 171, 228)" height="22.5" width="22.323529411764696" y="76.75" x="467.95588235294116"/><rect fill="rgb(126, 181, 231)" height="22.5" width="22.323529411764696" y="100.75" x="467.95588235294116"/><rect fill="rgb(126, 181, 231)" height="22.5" width="22.323529411764696" y="124.75" x="467.95588235294116"/><rect fill="rgb(58, 141, 219)" height="22.5" width="22.323529411764696" y="148.75" x="467.95588235294116"/><rect fill="rgb(92, 161, 225)" height="22.5" width="22.323529411764696" y="172.75" x="467.95588235294116"/><rect fill="rgb(92, 161, 225)" height="22.5" width="22.32352941176464" y="28.75" x="491.77941176470586"/><rect fill="rgb(100, 166, 226)" height="22.5" width="22.32352941176464" y="52.75" x="491.77941176470586"/><rect fill="rgb(92, 161, 225)" height="22.5" width="22.32352941176464" y="76.75" x="491.77941176470586"/><rect fill="rgb(83, 156, 223)" height="22.5" width="22.32352941176464" y="100.75" x="491.77941176470586"/><rect fill="rgb(92, 161, 225)" height="22.5" width="22.32352941176464" y="124.75" x="491.77941176470586"/><rect fill="rgb(66, 146, 220)" height="22.5" width="22.32352941176464" y="148.75" x="491.77941176470586"/><rect fill="rgb(109, 171, 228)" height="22.5" width="22.32352941176464" y="172.75" x="491.77941176470586"/><rect fill="rgb(49, 136, 217)" height="22.5" width="22.323529411764866" y="28.75" x="515.6029411764705"/><rect fill="rgb(109, 171, 228)" height="22.5" width="22.323529411764866" y="52.75" x="515.6029411764705"/><rect fill="rgb(75, 151, 222)" height="22.5" width="22.323529411764866" y="76.75" x="515.6029411764705"/><rect fill="rgb(58, 141, 219)" height="22.5" width="22.323529411764866" y="100.75" x="515.6029411764705"/><rect fill="rgb(49, 136, 217)" height="22.5" width="22.323529411764866" y="124.75" x="515.6029411764705"/><rect fill="rgb(83, 156, 223)" height="22.5" width="22.323529411764866" y="148.75" x="515.6029411764705"/><rect fill="rgb(6, 111, 209)" height="22.5" width="22.323529411764866" y="172.75" x="515.6029411764705"/><rect fill="rgb(118, 176, 230)" height="22.5" width="22.32352941176464" y="28.75" x="539.4264705882354"/><rect fill="rgb(75, 151, 222)" height="22.5" width="22.32352941176464" y="52.75" x="539.4264705882354"/><rect fill="rgb(23, 121, 212)" height="22.5" width="22.32352941176464" y="76.75" x="539.4264705882354"/><rect fill="rgb(83, 156, 223)" height="22.5" width="22.32352941176464" y="100.75" x="539.4264705882354"/><rect fill="rgb(32, 126, 214)" height="22.5" width="22.32352941176464" y="124.75" x="539.4264705882354"/><rect fill="rgb(15, 116, 211)" height="22.5" width="22.32352941176464" y="148.75" x="539.4264705882354"/><rect fill="rgb(83, 156, 223)" height="22.5" width="22.32352941176464" y="172.75" x="539.4264705882354"/><rect fill="rgb(15, 116, 211)" height="22.5" width="22.32352941176464" y="28.75" x="563.25"/><rect fill="rgb(15, 116, 211)" height="22.5" width="22.32352941176464" y="52.75" x="563.25"/><rect fill="rgb(32, 126, 214)" height="22.5" width="22.32352941176464" y="76.75" x="563.25"/><rect fill="rgb(118, 176, 230)" height="22.5" width="22.32352941176464" y="100.75" x="563.25"/><rect fill="#f8f8f8" height="22.5" width="22.32352941176464" y="124.75" x="563.25"/><rect fill="#f8f8f8" height="22.5" width="22.32352941176464" y="148.75" x="563.25"/><rect fill="#f8f8f8" height="22.5" width="22.32352941176464" y="172.75" x="563.25"/><rect fill="#f8f8f8" height="22.5" width="22.323529411764753" y="28.75" x="587.0735294117646"/><rect fill="#f8f8f8" height="22.5" width="22.323529411764753" y="52.75" x="587.0735294117646"/><rect fill="#f8f8f8" height="22.5" width="22.323529411764753" y="76.75" x="587.0735294117646"/><rect fill="#f8f8f8" height="22.5" width="22.323529411764753" y="100.75" x="587.0735294117646"/><rect fill="#f8f8f8" height="22.5" width="22.323529411764753" y="124.75" x="587.0735294117646"/><rect fill="#f8f8f8" height="22.5" width="22.323529411764753" y="148.75" x="587.0735294117646"/><rect fill="#f8f8f8" height="22.5" width="22.323529411764753" y="172.75" x="587.0735294117646"/><rect fill="#f8f8f8" height="22.5" width="22.32352941176464" y="28.75" x="610.8970588235294"/><rect fill="#f8f8f8" height="22.5" width="22.32352941176464" y="52.75" x="610.8970588235294"/><rect fill="#f8f8f8" height="22.5" width="22.32352941176464" y="76.75" x="610.8970588235294"/><rect fill="#f8f8f8" height="22.5" width="22.32352941176464" y="100.75" x="610.8970588235294"/><rect fill="#f8f8f8" height="22.5" width="22.32352941176464" y="124.75" x="610.8970588235294"/><rect fill="#f8f8f8" height="22.5" width="22.32352941176464" y="148.75" x="610.8970588235294"/><rect fill="#f8f8f8" height="22.5" width="22.32352941176464" y="172.75" x="610.8970588235294"/><rect fill="#f8f8f8" height="22.5" width="22.323529411764753" y="28.75" x="634.720588235294"/><rect fill="#f8f8f8" height="22.5" width="22.323529411764753" y="52.75" x="634.720588235294"/><rect fill="#f8f8f8" height="22.5" width="22.323529411764753" y="76.75" x="634.720588235294"/><rect fill="#f8f8f8" height="22.5" width="22.323529411764753" y="100.75" x="634.720588235294"/><rect fill="#f8f8f8" height="22.5" width="22.323529411764753" y="124.75" x="634.720588235294"/><rect fill="#f8f8f8" height="22.5" width="22.323529411764753" y="148.75" x="634.720588235294"/><rect fill="#f8f8f8" height="22.5" width="22.323529411764753" y="172.75" x="634.720588235294"/><rect fill="#f8f8f8" height="22.5" width="22.32352941176464" y="28.75" x="658.5441176470588"/><rect fill="#f8f8f8" height="22.5" width="22.32352941176464" y="52.75" x="658.5441176470588"/><rect fill="#f8f8f8" height="22.5" width="22.32352941176464" y="76.75" x="658.5441176470588"/><rect fill="#f8f8f8" height="22.5" width="22.32352941176464" y="100.75" x="658.5441176470588"/><rect fill="#f8f8f8" height="22.5" width="22.32352941176464" y="124.75" x="658.5441176470588"/><rect fill="#f8f8f8" height="22.5" width="22.32352941176464" y="148.75" x="658.5441176470588"/></g><g aria-hidden="true" aria-label="rect"><rect fill="var(--tblr-success)" height="22.5" width="22.32352941176464" y="76.75" x="563.25"/><rect fill="var(--tblr-success)" height="22.5" width="22.32352941176464" y="100.75" x="563.25"/></g><g font-size="12" font-family="var(--tblr-body-font-family)" fill="#000" aria-label="text"><text transform="translate(193.23529411764702,40)" y="0.32em">2</text><text transform="translate(193.23529411764702,64)" y="0.32em">1</text><text transform="translate(193.23529411764702,112)" y="0.32em">2</text><text transform="translate(193.23529411764702,160)" y="0.32em">1</text><text transform="translate(193.23529411764702,184)" y="0.32em">2</text><text transform="translate(217.05882352941174,40)" y="0.32em">1</text><text transform="translate(217.05882352941174,88)" y="0.32em">3</text><text transform="translate(217.05882352941174,136)" y="0.32em">2</text><text transform="translate(217.05882352941174,160)" y="0.32em">3</text><text transform="translate(217.05882352941174,184)" y="0.32em">2</text><text transform="translate(240.88235294117644,40)" y="0.32em">2</text><text transform="translate(240.88235294117644,64)" y="0.32em">2</text><text transform="translate(240.88235294117644,88)" y="0.32em">2</text><text transform="translate(240.88235294117644,112)" y="0.32em">2</text><text transform="translate(240.88235294117644,136)" y="0.32em">3</text><text transform="translate(240.88235294117644,160)" y="0.32em">3</text><text transform="translate(240.88235294117644,184)" y="0.32em">3</text><text transform="translate(264.70588235294116,40)" y="0.32em">4</text><text transform="translate(264.70588235294116,64)" y="0.32em">2</text><text transform="translate(264.70588235294116,88)" y="0.32em">3</text><text transform="translate(264.70588235294116,112)" y="0.32em">2</text><text transform="translate(264.70588235294116,136)" y="0.32em">5</text><text transform="translate(264.70588235294116,160)" y="0.32em">3</text><text transform="translate(264.70588235294116,184)" y="0.32em">4</text><text transform="translate(288.52941176470586,40)" y="0.32em">4</text><text transform="translate(288.52941176470586,64)" y="0.32em">4</text><text transform="translate(288.52941176470586,88)" y="0.32em">5</text><text transform="translate(288.52941176470586,112)" y="0.32em">5</text><text transform="translate(288.52941176470586,136)" y="0.32em">3</text><text transform="translate(288.52941176470586,160)" y="0.32em">6</text><text transform="translate(288.52941176470586,184)" y="0.32em">4</text><text transform="translate(312.3529411764705,40)" y="0.32em">3</text><text transform="translate(312.3529411764705,64)" y="0.32em">6</text><text transform="translate(312.3529411764705,88)" y="0.32em">6</text><text transform="translate(312.3529411764705,112)" y="0.32em">6</text><text transform="translate(312.3529411764705,136)" y="0.32em">7</text><text transform="translate(312.3529411764705,160)" y="0.32em">3</text><text transform="translate(312.3529411764705,184)" y="0.32em">8</text><text transform="translate(336.17647058823525,40)" y="0.32em">5</text><text transform="translate(336.17647058823525,64)" y="0.32em">6</text><text transform="translate(336.17647058823525,88)" y="0.32em">7</text><text transform="translate(336.17647058823525,112)" y="0.32em">8</text><text transform="translate(336.17647058823525,136)" y="0.32em">6</text><text transform="translate(336.17647058823525,160)" y="0.32em">7</text><text transform="translate(336.17647058823525,184)" y="0.32em">7</text><text transform="translate(359.99999999999994,40)" y="0.32em">8</text><text transform="translate(359.99999999999994,64)" y="0.32em">9</text><text transform="translate(359.99999999999994,88)" y="0.32em">7</text><text transform="translate(359.99999999999994,112)" y="0.32em">10</text><text transform="translate(359.99999999999994,136)" y="0.32em">10</text><text transform="translate(359.99999999999994,160)" y="0.32em">9</text><text transform="translate(359.99999999999994,184)" y="0.32em">9</text><text transform="translate(383.8235294117647,40)" y="0.32em">9</text><text transform="translate(383.8235294117647,64)" y="0.32em">12</text><text transform="translate(383.8235294117647,88)" y="0.32em">12</text><text transform="translate(383.8235294117647,112)" y="0.32em">8</text><text transform="translate(383.8235294117647,136)" y="0.32em">14</text><text transform="translate(383.8235294117647,160)" y="0.32em">12</text><text transform="translate(383.8235294117647,184)" y="0.32em">11</text><text transform="translate(407.6470588235294,40)" y="0.32em">9</text><text transform="translate(407.6470588235294,64)" y="0.32em">12</text><text transform="translate(407.6470588235294,88)" y="0.32em">11</text><text transform="translate(407.6470588235294,112)" y="0.32em">13</text><text transform="translate(407.6470588235294,136)" y="0.32em">15</text><text transform="translate(407.6470588235294,160)" y="0.32em">11</text><text transform="translate(407.6470588235294,184)" y="0.32em">8</text><text transform="translate(431.47058823529403,40)" y="0.32em">13</text><text transform="translate(431.47058823529403,64)" y="0.32em">12</text><text transform="translate(431.47058823529403,88)" y="0.32em">15</text><text transform="translate(431.47058823529403,112)" y="0.32em">12</text><text transform="translate(431.47058823529403,136)" y="0.32em">16</text><text transform="translate(431.47058823529403,160)" y="0.32em">11</text><text transform="translate(431.47058823529403,184)" y="0.32em">13</text><text transform="translate(455.29411764705884,40)" y="0.32em">15</text><text transform="translate(455.29411764705884,64)" y="0.32em">17</text><text transform="translate(455.29411764705884,88)" y="0.32em">10</text><text transform="translate(455.29411764705884,112)" y="0.32em">17</text><text transform="translate(455.29411764705884,136)" y="0.32em">21</text><text transform="translate(455.29411764705884,160)" y="0.32em">12</text><text transform="translate(455.29411764705884,184)" y="0.32em">12</text><text transform="translate(479.11764705882354,40)" y="0.32em">18</text><text transform="translate(479.11764705882354,64)" y="0.32em">18</text><text transform="translate(479.11764705882354,88)" y="0.32em">17</text><text transform="translate(479.11764705882354,112)" y="0.32em">15</text><text transform="translate(479.11764705882354,136)" y="0.32em">15</text><text transform="translate(479.11764705882354,160)" y="0.32em">23</text><text transform="translate(479.11764705882354,184)" y="0.32em">19</text><text transform="translate(502.94117647058823,40)" y="0.32em">19</text><text transform="translate(502.94117647058823,64)" y="0.32em">18</text><text transform="translate(502.94117647058823,88)" y="0.32em">19</text><text transform="translate(502.94117647058823,112)" y="0.32em">20</text><text transform="translate(502.94117647058823,136)" y="0.32em">19</text><text transform="translate(502.94117647058823,160)" y="0.32em">22</text><text transform="translate(502.94117647058823,184)" y="0.32em">17</text><text transform="translate(526.7647058823529,40)" y="0.32em">24</text><text transform="translate(526.7647058823529,64)" y="0.32em">17</text><text transform="translate(526.7647058823529,88)" y="0.32em">21</text><text transform="translate(526.7647058823529,112)" y="0.32em">23</text><text transform="translate(526.7647058823529,136)" y="0.32em">24</text><text transform="translate(526.7647058823529,160)" y="0.32em">20</text><text transform="translate(526.7647058823529,184)" y="0.32em">29</text><text transform="translate(550.5882352941176,40)" y="0.32em">16</text><text transform="translate(550.5882352941176,64)" y="0.32em">21</text><text transform="translate(550.5882352941176,88)" y="0.32em">27</text><text transform="translate(550.5882352941176,112)" y="0.32em">20</text><text transform="translate(550.5882352941176,136)" y="0.32em">26</text><text transform="translate(550.5882352941176,160)" y="0.32em">28</text><text transform="translate(550.5882352941176,184)" y="0.32em">20</text><text transform="translate(574.4117647058823,40)" y="0.32em">28</text><text transform="translate(574.4117647058823,64)" y="0.32em">28</text><text transform="translate(574.4117647058823,88)" y="0.32em">26</text><text transform="translate(574.4117647058823,112)" y="0.32em">16</text></g><g stroke-width="2" stroke="var(--tblr-danger)" fill="none" aria-hidden="true" aria-label="rect"><rect height="24" width="23.823529411764753" y="28" x="586.3235294117646"/></g><g text-anchor="start" stroke="currentColor" fill="var(--plot-background)" aria-label="tip"/></svg>