<svg xmlns="http://www.w3.org/2000/svg" width="440" height="100" fill="none" viewBox="0 0 440 100"><g clip-path="url(#clip0_1_97)"><rect width="100" height="100" fill="#0054A6" rx="35"/><rect width="100.262" height="51.495" x="-50.222" y="113.489" fill="#4D87C1" transform="rotate(-45 -50.222 113.489)"/><rect width="100.262" height="37.037" x="-37.77" y="112.126" fill="#4D87C1" transform="rotate(-45 -37.7702 112.126)"/><g clip-path="url(#clip1_1_97)"><path fill="#4D87C1" stroke="#fff" stroke-linecap="round" stroke-linejoin="round" stroke-width="2" d="M78.125 21.875L57.8125 78.125C57.6754 78.4242 57.4553 78.6777 57.1783 78.8555C56.9013 79.0332 56.5791 79.1277 56.25 79.1277C55.9209 79.1277 55.5987 79.0332 55.3217 78.8555C55.0447 78.6777 54.8246 78.4242 54.6875 78.125L43.75 56.25L21.875 45.3125C21.5758 45.1754 21.3223 44.9553 21.1445 44.6783C20.9668 44.4013 20.8723 44.0791 20.8723 43.75C20.8723 43.4209 20.9668 43.0987 21.1445 42.8217C21.3223 42.5447 21.5758 42.3246 21.875 42.1875L78.125 21.875Z"/><path stroke="#fff" stroke-linecap="round" stroke-linejoin="round" stroke-width="2" d="M43.75 56.25L78.125 21.875"/></g></g><path fill="#000" d="M115.289 75V25.6787H145.846V31.2158H121.441V47.041H144.581V52.5098H121.441V69.4629H145.846V75H115.289ZM166.661 75L153.023 38.1543H159.312L169.396 68.5059H169.942L180.025 38.1543H186.314L172.677 75H166.661ZM207.848 75.6494C197.32 75.6494 190.963 68.2666 190.963 56.7139V56.6797C190.963 45.2979 197.457 37.5049 207.472 37.5049C217.486 37.5049 223.57 44.9561 223.57 55.9619V58.2861H197.047C197.218 65.9082 201.422 70.3516 207.984 70.3516C212.975 70.3516 216.051 67.9932 217.042 65.7715L217.179 65.4639H223.126L223.058 65.7373C221.793 70.7275 216.529 75.6494 207.848 75.6494ZM207.438 42.8027C201.969 42.8027 197.799 46.5283 197.149 53.5352H217.521C216.905 46.2549 212.872 42.8027 207.438 42.8027ZM232.799 75V38.1543H238.746V43.6914H239.293C241.139 39.7949 244.591 37.5049 250.025 37.5049C258.297 37.5049 262.911 42.3926 262.911 51.1426V75H256.964V52.5781C256.964 45.9473 254.229 42.7686 248.351 42.7686C242.472 42.7686 238.746 46.7334 238.746 53.1934V75H232.799ZM286.769 75.2734C279.181 75.2734 276.002 72.4707 276.002 65.4297V43.0762H270.191V38.1543H276.002V28.6182H282.154V38.1543H290.221V43.0762H282.154V63.9258C282.154 68.2666 283.658 70.0098 287.486 70.0098C288.546 70.0098 289.127 69.9756 290.221 69.873V74.9316C289.059 75.1367 287.931 75.2734 286.769 75.2734ZM299.859 75V25.6787H318.453C327.716 25.6787 334.278 32.0703 334.278 41.4355V41.5039C334.278 50.8691 327.716 57.3975 318.453 57.3975H306.012V75H299.859ZM316.881 31.1475H306.012V51.9287H316.881C323.922 51.9287 327.989 48.0664 327.989 41.5723V41.5039C327.989 35.0098 323.922 31.1475 316.881 31.1475ZM346.754 31.0449C344.498 31.0449 342.652 29.1992 342.652 26.9434C342.652 24.6875 344.498 22.8418 346.754 22.8418C349.01 22.8418 350.855 24.6875 350.855 26.9434C350.855 29.1992 349.01 31.0449 346.754 31.0449ZM343.746 75V38.1543H349.693V75H343.746ZM361.246 75V23.5254H367.193V75H361.246ZM393.751 75.6494C383.258 75.6494 376.764 68.4033 376.764 56.6113V56.543C376.764 44.7168 383.258 37.5049 393.751 37.5049C404.244 37.5049 410.738 44.7168 410.738 56.543V56.6113C410.738 68.4033 404.244 75.6494 393.751 75.6494ZM393.751 70.3857C400.724 70.3857 404.654 65.293 404.654 56.6113V56.543C404.654 47.8271 400.724 42.7686 393.751 42.7686C386.778 42.7686 382.848 47.8271 382.848 56.543V56.6113C382.848 65.293 386.778 70.3857 393.751 70.3857ZM433.058 75.2734C425.47 75.2734 422.291 72.4707 422.291 65.4297V43.0762H416.48V38.1543H422.291V28.6182H428.443V38.1543H436.51V43.0762H428.443V63.9258C428.443 68.2666 429.947 70.0098 433.775 70.0098C434.835 70.0098 435.416 69.9756 436.51 69.873V74.9316C435.348 75.1367 434.22 75.2734 433.058 75.2734Z"/><defs><clipPath id="clip0_1_97"><rect width="100" height="100" fill="#fff" rx="35"/></clipPath><clipPath id="clip1_1_97"><rect width="75" height="75" fill="#fff" transform="translate(12.5 12.5)"/></clipPath></defs></svg>