<svg width="26" height="26" viewBox="0 0 100 100" fill="none" xmlns="http://www.w3.org/2000/svg">
<g clip-path="url(#clip0_13_2)">
<rect width="100" height="100" fill="#0054A6"/>
<rect x="-50.222" y="113.489" width="100.262" height="51.4949" transform="rotate(-45 -50.222 113.489)" fill="#4D87C1"/>
<rect x="-37.7702" y="112.126" width="100.262" height="37.0368" transform="rotate(-45 -37.7702 112.126)" fill="#4D87C1"/>
<g clip-path="url(#clip1_13_2)">
<path d="M78.125 21.875L57.8125 78.125C57.6754 78.4242 57.4553 78.6777 57.1783 78.8555C56.9013 79.0332 56.5791 79.1277 56.25 79.1277C55.9209 79.1277 55.5987 79.0332 55.3217 78.8555C55.0447 78.6777 54.8246 78.4242 54.6875 78.125L43.75 56.25L21.875 45.3125C21.5758 45.1754 21.3223 44.9553 21.1445 44.6783C20.9668 44.4013 20.8723 44.0791 20.8723 43.75C20.8723 43.4209 20.9668 43.0987 21.1445 42.8217C21.3223 42.5447 21.5758 42.3246 21.875 42.1875L78.125 21.875Z" fill="#4D87C1" stroke="white" stroke-width="2" stroke-linecap="round" stroke-linejoin="round"/>
<path d="M43.75 56.25L78.125 21.875" stroke="white" stroke-width="2" stroke-linecap="round" stroke-linejoin="round"/>
</g>
</g>
<defs>
<clipPath id="clip0_13_2">
<rect width="100" height="100" fill="white"/>
</clipPath>
<clipPath id="clip1_13_2">
<rect width="75" height="75" fill="white" transform="translate(12.5 12.5)"/>
</clipPath>
</defs>
</svg>
